<?xml version="1.0" encoding="iso-8859-1"?>
<!-- Generator: Adobe Illustrator 16.0.0, SVG Export Plug-In . SVG Version: 6.00 Build 0)  -->
<!DOCTYPE svg PUBLIC "-//W3C//DTD SVG 1.1//EN" "http://www.w3.org/Graphics/SVG/1.1/DTD/svg11.dtd">
<svg version="1.1" id="Capa_1" xmlns="http://www.w3.org/2000/svg" xmlns:xlink="http://www.w3.org/1999/xlink" x="0px" y="0px"
	 width="29.906px" height="29.906px" viewBox="0 0 29.906 29.906" style="enable-background:new 0 0 29.906 29.906;"
	 xml:space="preserve">
<g>
	<g>
		<g id="Icons_17_">
			<g>
				<path d="M19.679,26.75l-0.006-0.035c-0.386-2.229-0.354-4.508,0.096-6.724l0.697-3.448c0.411-2.035,0.475-4.125,0.183-6.18
					l-0.067-0.476c-0.84,0.752-1.92,1.196-3.077,1.196c-0.634,0-1.244-0.127-1.809-0.367c-0.772,0.552-1.71,0.867-2.692,0.867
					c-1.179,0-2.272-0.446-3.103-1.2c-0.289,2.049-0.227,4.131,0.184,6.16l0.698,3.448c0.449,2.216,0.481,4.495,0.096,6.724
					l-0.006,0.035c-1.449,0.402-1.451,1.012-1.451,1.375c0,0.578,0,1.781,5.854,1.781c5.854,0,5.854-1.203,5.854-1.781
					C21.128,27.762,21.126,27.152,19.679,26.75z"/>
				<path d="M13.004,9.583c1.069,0,1.985-0.637,2.402-1.55c0.482,0.634,1.239,1.05,2.098,1.05c0.934,0,1.748-0.484,2.221-1.211
					c0.895-0.017,1.616-0.744,1.616-1.643c0-0.744-0.498-1.365-1.175-1.569C20.23,4.45,20.275,4.231,20.275,4
					c0-1.231-0.998-2.229-2.229-2.229c-0.393,0-0.755,0.109-1.073,0.287C16.671,0.877,15.611,0,14.337,0
					c-1.175,0-2.168,0.747-2.553,1.788c-0.059-0.007-0.116-0.018-0.177-0.018c-0.758,0.001-1.374,0.616-1.374,1.376
					c0,0.156,0.032,0.304,0.08,0.443C9.322,3.76,8.566,4.618,8.566,5.657c0,1.103,0.851,1.997,1.931,2.087
					C10.839,8.808,11.826,9.583,13.004,9.583z"/>
			</g>
		</g>
	</g>
</g>
<g>
</g>
<g>
</g>
<g>
</g>
<g>
</g>
<g>
</g>
<g>
</g>
<g>
</g>
<g>
</g>
<g>
</g>
<g>
</g>
<g>
</g>
<g>
</g>
<g>
</g>
<g>
</g>
<g>
</g>
</svg>
